<svg version="1.2" baseProfile="tiny-ps" xmlns="http://www.w3.org/2000/svg" viewBox="0 0 2166 985" width="2166" height="985">
	<title>Path 0</title>
	<style>
		tspan { white-space:pre }
		.shp0 { fill: #0a0a0a } 
	</style>
	<path id="Path 0" fill-rule="evenodd" class="shp0" d="M489.5 0.14C502.15 0.07 518.8 0.47 526.5 1.03C534.2 1.59 547.47 2.96 556 4.07C564.52 5.19 577.35 7.23 584.5 8.6C591.65 9.98 604.47 12.85 613 14.99C621.52 17.12 635.02 20.97 643 23.54C650.97 26.11 664.02 30.81 672 33.99C679.97 37.16 691.67 42.09 698 44.94C704.32 47.8 714 52.55 719.5 55.51C725 58.48 742.65 68.91 758.73 78.7C774.8 88.49 788 96.95 788.06 97.5C788.13 98.05 775.65 104.87 732.5 126.8L716.5 116.82C707.7 111.33 691.72 102.47 681 97.14C670.27 91.81 655.42 85.06 648 82.15C640.57 79.23 627.97 74.82 620 72.34C612.02 69.87 599.2 66.32 591.5 64.46C583.8 62.6 570.75 59.96 562.5 58.61C554.25 57.25 539.62 55.38 530 54.46C516.29 53.14 506.22 52.89 483.5 53.3C466.17 53.61 449.07 54.48 441 55.46C433.57 56.36 421.2 58.24 413.5 59.64C405.8 61.03 392.75 63.89 384.5 65.99C376.25 68.09 363.65 71.7 356.5 74.02C349.35 76.34 338.1 80.39 331.5 83.01C324.9 85.63 312.97 90.89 305 94.7C297.02 98.51 285.1 104.71 278.5 108.49C271.9 112.26 262 118.25 256.5 121.79C251 125.34 242.45 131.19 237.5 134.81C232.55 138.42 224.9 144.26 220.5 147.79C216.1 151.32 206.67 159.45 199.55 165.85C192.43 172.26 181.03 183.57 174.21 191C167.39 198.42 158.55 208.55 154.56 213.5C150.56 218.45 143.72 227.45 139.35 233.5C134.97 239.55 128 249.9 123.84 256.5C119.68 263.1 113.09 274.35 109.18 281.5C105.27 288.65 99.54 300.12 96.44 307C93.35 313.87 88.88 324.45 86.53 330.5C84.18 336.55 80.15 348.02 77.58 356C75.01 363.97 71.16 377.7 69.02 386.5C66.88 395.3 64.21 407.9 63.08 414.5C61.95 421.1 60.35 431.9 59.53 438.5C58.71 445.1 57.57 460.17 57 472C56.27 486.96 56.27 499.13 57 512C57.58 522.17 58.5 534.55 59.05 539.5C59.6 544.45 60.75 553.22 61.6 559C62.46 564.77 64.03 573.77 65.1 579C66.17 584.22 68.41 593.9 70.08 600.5C71.75 607.1 74.71 617.67 76.66 624C78.61 630.32 83.14 642.92 86.72 652C90.3 661.07 97.06 676.15 101.73 685.5C106.41 694.85 114.79 710.05 120.37 719.28C128.58 732.88 130.31 736.42 129.5 737.9C128.95 738.91 121.97 751.48 114 765.82C102.95 785.7 99.23 791.62 98.36 790.7C97.73 790.04 88.73 775.56 78.36 758.52C67.99 741.47 55.66 719.87 50.97 710.52C46.27 701.16 39.23 685.4 35.31 675.5C31.39 665.6 25.94 650.52 23.19 642C20.44 633.47 16.35 619.07 14.1 610C11.85 600.92 8.68 585.62 7.06 576C5.43 566.37 3.38 551.97 2.5 544C1.62 536.02 0.63 517.8 0.3 503.5C-0.09 486.71 0.14 471.3 0.94 460C1.63 450.37 3.02 436.2 4.04 428.5C5.06 420.8 6.78 409.55 7.87 403.5C8.96 397.45 11.03 387.32 12.48 381C13.93 374.67 16.46 364.77 18.11 359C19.76 353.22 22.49 344.22 24.18 339C25.87 333.77 29.48 323.65 32.21 316.5C34.93 309.35 39.9 297.42 43.24 290C46.59 282.57 52.91 269.75 57.28 261.5C61.65 253.25 69.31 239.97 74.3 232C79.29 224.02 86.28 213.45 89.84 208.5C93.39 203.55 99.24 195.67 102.83 191C106.43 186.32 114.42 176.65 120.59 169.5C126.77 162.35 138.72 149.71 147.16 141.41C155.6 133.12 167.22 122.31 173 117.4C178.77 112.49 189.57 103.92 197 98.35C204.42 92.79 216.35 84.42 223.5 79.77C230.65 75.11 241.45 68.45 247.5 64.97C253.55 61.49 267.05 54.48 277.5 49.39C287.95 44.31 303.25 37.47 311.5 34.21C319.75 30.94 331.45 26.66 337.5 24.69C343.55 22.72 353.22 19.77 359 18.13C364.77 16.5 375.57 13.8 383 12.14C390.42 10.48 401.67 8.22 408 7.11C414.32 6.01 425.57 4.39 433 3.51C440.42 2.64 451 1.55 456.5 1.1C462 0.65 476.85 0.21 489.5 0.14ZM904 65C905.37 64.99 908.49 66 910.93 67.24C913.71 68.66 916.03 70.8 917.18 73C918.18 74.92 919.01 78.19 919 80.25C919 82.51 917.66 86.67 915.61 90.75C913.74 94.46 849.17 216.75 772.11 362.5C667.06 561.21 631.2 628.2 628.76 630.3C626.96 631.85 504.22 697.27 356 775.7C109.73 905.99 86.03 918.32 81 918.73C76.42 919.1 74.91 918.78 72 916.82C70.07 915.52 67.71 912.89 66.75 910.98C65.79 909.07 65 906.04 65 904.25C65 902.46 65.95 899.09 67.11 896.75C68.27 894.41 132.69 772.35 210.27 625.5C294.66 465.75 352.56 357.22 354.41 355.31C356.47 353.18 446.28 305.17 624.5 210.92C771.35 133.26 893.75 68.66 896.5 67.37C899.25 66.08 902.62 65.01 904 65ZM376.31 376.5C175.5 756.25 117.37 866.72 117.57 867C117.77 867.27 227.87 809.31 362.22 738.18C496.57 667.06 607.01 608.33 607.64 607.68C608.26 607.03 666.87 496.59 737.89 362.25C808.9 227.91 866.85 117.82 866.67 117.61C866.49 117.4 756.09 175.56 621.33 246.86L376.31 376.5ZM890.6 201.17C891.22 201.9 899.64 215.55 909.31 231.5C919.17 247.78 930.59 268.18 935.33 278C939.97 287.62 946.71 302.92 950.3 312C953.89 321.07 958.92 335.25 961.48 343.5C964.04 351.75 967.65 364.57 969.5 372C971.34 379.42 973.78 390.22 974.91 396C976.04 401.77 977.64 410.77 978.47 416C979.29 421.22 980.69 431.57 981.58 439C982.52 446.91 983.4 464.72 983.71 482C984.05 500.77 983.81 517.14 983.04 527C982.38 535.52 980.99 549.02 979.96 557C978.92 564.97 977.2 576.22 976.12 582C975.04 587.77 972.97 597.67 971.52 604C970.07 610.32 967.54 620.22 965.89 626C964.24 631.77 961.28 641.45 959.31 647.5C957.34 653.55 953.05 665.25 949.79 673.5C946.52 681.75 939.92 696.6 935.11 706.5C930.31 716.4 922.85 730.57 918.54 738C914.23 745.42 907.12 756.9 902.75 763.5C898.37 770.1 890.38 781.35 884.99 788.5C879.59 795.65 870.54 806.9 864.88 813.5C859.21 820.1 848.03 832.04 840.04 840.04C832.04 848.03 820.1 859.21 813.5 864.88C806.9 870.54 795.65 879.59 788.5 884.99C781.35 890.38 770.1 898.37 763.5 902.75C756.9 907.12 745.42 914.23 738 918.54C730.57 922.85 716.4 930.31 706.5 935.11C696.6 939.92 681.75 946.52 673.5 949.79C665.25 953.05 653.55 957.34 647.5 959.31C641.45 961.28 631.77 964.24 626 965.88C620.22 967.52 609.65 970.23 602.5 971.89C595.35 973.55 582.75 976.04 574.5 977.43C566.25 978.81 553.2 980.65 545.5 981.51C537.8 982.37 522.72 983.42 512 983.84C501.27 984.26 483.5 984.28 472.5 983.89C461.5 983.5 445.97 982.43 438 981.52C430.02 980.61 417.2 978.78 409.5 977.47C401.8 976.15 389.42 973.69 382 972C374.57 970.31 362.87 967.31 356 965.34C349.12 963.37 338.32 959.97 332 957.79C325.67 955.61 314.87 951.57 308 948.8C301.12 946.04 287.4 939.86 277.5 935.07C266.34 929.68 247.07 918.79 226.79 906.43C208.8 895.47 194.4 886.22 194.79 885.88C195.18 885.54 207.76 878.9 222.75 871.13C237.74 863.36 250.34 856.99 250.75 856.98C251.16 856.97 258.92 861.53 268 867.12C277.07 872.7 292.6 881.21 302.5 886.04C312.4 890.86 325.67 896.83 332 899.29C338.32 901.76 349.8 905.83 357.5 908.34C365.2 910.85 375.77 914.04 381 915.42C386.22 916.81 397.25 919.29 405.5 920.95C413.75 922.6 427.92 924.97 437 926.2C451.52 928.18 457.82 928.45 489.5 928.47C518.15 928.49 528.46 928.13 540 926.7C547.97 925.71 560.8 923.77 568.5 922.39C576.2 921 589.25 918.14 597.5 916.03C605.75 913.92 617.67 910.52 624 908.49C630.32 906.46 641.8 902.32 649.5 899.29C657.2 896.26 670.25 890.5 678.5 886.48C686.75 882.47 698.9 876.07 705.5 872.27C712.1 868.46 722.45 862.07 728.5 858.05C734.55 854.03 744.45 847.03 750.5 842.49C756.55 837.95 766.45 829.98 772.5 824.78C778.55 819.58 789.12 809.72 796 802.88C802.87 796.03 812.56 785.72 817.52 779.97C822.48 774.21 829.03 766.35 832.07 762.5C835.12 758.65 840.78 751 844.65 745.5C848.52 740 854.37 731.22 857.66 726C860.95 720.77 865.95 712.45 868.76 707.5C871.58 702.55 877.46 691.07 881.83 682C886.19 672.92 891.79 660.32 894.27 654C896.75 647.67 901.03 635.52 903.79 627C906.55 618.47 910.62 604.07 912.82 595C915.03 585.92 917.75 573.1 918.88 566.5C920.01 559.9 921.73 547.97 922.71 540C924.12 528.55 924.48 518.03 924.47 490C924.45 458.72 924.17 452.48 922.16 437.5C920.9 428.15 918.75 414.65 917.38 407.5C916.02 400.35 913.16 387.75 911.02 379.5C908.89 371.25 905.37 359.1 903.2 352.5C901.02 345.9 897.12 335.1 894.52 328.5C891.92 321.9 886.33 309.3 882.1 300.5C877.86 291.7 870.71 278.31 866.2 270.75C861.69 263.19 857.98 256.77 857.95 256.49C857.92 256.21 863.83 245.3 871.08 232.24C878.34 219.18 885.44 206.55 886.87 204.17C888.93 200.73 889.69 200.12 890.6 201.17ZM2019.5 336.17C2020.05 336.11 2026.12 336.47 2033 336.97C2039.87 337.47 2050 338.81 2055.5 339.95C2061 341.09 2069.77 343.43 2075 345.15C2080.22 346.88 2088.77 350.43 2094 353.05C2099.22 355.67 2106.87 360.19 2111 363.09C2115.12 366 2122.35 372.23 2127.05 376.94C2131.75 381.65 2138.13 389.32 2141.23 394C2144.33 398.67 2148.41 405.87 2150.3 410C2152.19 414.12 2155.1 421.77 2156.77 427C2158.44 432.22 2159.97 437.85 2160.5 442.5L2085 443L2082.85 438.75C2081.67 436.41 2079.18 432.47 2077.31 430C2075.44 427.52 2071.57 423.54 2068.71 421.13C2065.84 418.73 2061.25 415.64 2058.5 414.26C2055.75 412.88 2050.12 410.84 2046 409.72C2040.09 408.11 2035.52 407.68 2024.5 407.7C2013.67 407.72 2008.8 408.18 2003 409.74C1998.87 410.85 1992.12 413.44 1988 415.5C1982.44 418.28 1978.42 421.35 1972.46 427.37C1965.72 434.18 1963.58 437.21 1959.29 446C1956.47 451.77 1953.44 459.42 1952.56 463C1951.68 466.57 1950.44 474.22 1949.81 480C1948.95 487.88 1948.95 493 1949.81 500.5C1950.44 506 1951.68 513.42 1952.57 517C1953.46 520.57 1956.15 527.55 1958.54 532.5C1960.94 537.45 1964.89 543.97 1967.32 547C1969.74 550.02 1974.15 554.38 1977.11 556.68C1980.08 558.98 1985.42 562.29 1989 564.05C1992.57 565.81 1998.87 568.14 2003 569.23C2008.64 570.71 2013.85 571.21 2024 571.24C2033.21 571.26 2040.04 570.72 2045.5 569.54C2049.9 568.58 2056.39 566.38 2059.92 564.65C2063.46 562.92 2068.6 559.47 2071.35 557C2074.11 554.52 2078.54 549.12 2081.21 545C2083.88 540.87 2086.05 537.16 2086.03 536.75C2086.01 536.34 2071.94 535.89 2023.5 535.5L2023 469L2165 469L2165.64 472.75C2165.99 474.81 2166.02 486.62 2165.7 499C2165.29 515.04 2164.57 524.37 2163.19 531.5C2162.13 537 2160.09 545.32 2158.66 550C2157.23 554.67 2154.79 561.42 2153.24 565C2151.68 568.57 2149.02 574.2 2147.32 577.5C2145.62 580.8 2141.56 587.1 2138.3 591.5C2135.03 595.9 2129.02 602.6 2124.93 606.38C2120.84 610.16 2114.35 615.39 2110.5 617.99C2106.65 620.58 2101.02 624.1 2098 625.8C2094.97 627.49 2088.9 630.26 2084.5 631.95C2080.1 633.64 2073.35 635.88 2069.5 636.93C2065.65 637.98 2058.67 639.59 2054 640.5C2049.32 641.42 2038.52 642.42 2030 642.72C2020.48 643.06 2010.45 642.8 2004 642.05C1998.22 641.37 1988.55 639.58 1982.5 638.05C1976.45 636.52 1966.55 633.3 1960.5 630.89C1954.46 628.47 1945.23 623.95 1940 620.83C1934.78 617.71 1926.9 612.27 1922.5 608.74C1918.1 605.21 1911.41 598.76 1907.64 594.41C1903.87 590.06 1898.54 583.35 1895.8 579.5C1893.06 575.65 1888.66 568.22 1886.03 563C1883.39 557.77 1879.86 549.22 1878.16 544C1876.47 538.77 1874.41 531.12 1873.6 527C1872.78 522.87 1871.63 515.67 1871.05 511C1870.47 506.32 1870 496.87 1870 490C1870 483.12 1870.47 473.67 1871.05 469C1871.63 464.32 1872.78 457.12 1873.6 453C1874.43 448.87 1876.24 441.9 1877.63 437.5C1879.02 433.1 1881.76 425.9 1883.71 421.5C1885.67 417.1 1889.74 409.67 1892.76 405C1895.78 400.32 1901.45 392.71 1905.37 388.08C1909.29 383.45 1915.65 376.95 1919.5 373.64C1923.35 370.33 1930.32 365.14 1935 362.11C1939.67 359.08 1947.55 354.68 1952.5 352.34C1957.45 350.01 1966.22 346.54 1972 344.64C1977.77 342.73 1986.55 340.41 1991.5 339.48C1996.45 338.54 2004.55 337.44 2009.5 337.03C2014.45 336.62 2018.95 336.23 2019.5 336.17ZM1650.5 339.5L1651 442.5C1651.46 537.46 1651.64 545.85 1653.25 550C1654.21 552.47 1656.24 556.24 1657.75 558.37C1659.31 560.57 1663.32 563.89 1667 566.04C1670.57 568.13 1675.97 570.57 1679 571.47C1682.02 572.36 1688.1 573.34 1692.5 573.64C1698.02 574.03 1702.83 573.69 1708 572.57C1712.12 571.68 1718.2 569.57 1721.5 567.89C1724.8 566.21 1729.19 563.18 1731.26 561.17C1733.32 559.15 1736.02 555.25 1739.5 547.5L1739.72 444.5C1739.89 362.27 1740.2 341.25 1741.22 340.27C1742.19 339.34 1751.28 339.1 1815.5 339.5L1815.5 555.5L1813.2 564.5C1811.93 569.45 1809.21 577.1 1807.15 581.5C1805.08 585.9 1802.02 591.52 1800.34 594C1798.67 596.47 1793.51 602.49 1788.9 607.37C1784.28 612.26 1777.12 618.61 1773 621.5C1768.87 624.39 1762.12 628.44 1758 630.5C1753.87 632.56 1746 635.75 1740.5 637.58C1735 639.41 1726.22 641.7 1721 642.66C1714.6 643.83 1706.43 644.4 1696 644.4C1685.57 644.4 1677.4 643.83 1671 642.66C1665.77 641.7 1656.77 639.33 1651 637.4C1645.22 635.47 1636.67 631.81 1632 629.27C1627.32 626.73 1621.25 623 1618.5 620.97C1615.75 618.94 1611.07 615.08 1608.1 612.39C1605.13 609.7 1599.96 604.06 1596.6 599.86C1593.25 595.65 1588.97 589.13 1587.1 585.36C1585.23 581.58 1582.84 576.02 1581.8 573C1580.75 569.97 1579.17 564.57 1578.28 561C1576.85 555.28 1576.59 541.68 1576.12 448.16C1575.67 360.21 1575.81 341.57 1576.91 340.4C1578.03 339.21 1584.21 339.02 1650.5 339.5ZM1119.5 340.5L1120.01 453.5L1132.25 452.82C1139.41 452.42 1147.83 451.26 1152.5 450.02C1156.9 448.86 1163.19 446.47 1166.47 444.7C1169.75 442.94 1174.7 439.22 1177.47 436.43C1180.24 433.64 1184.37 427.79 1186.66 423.43C1188.95 419.07 1191.52 413.02 1192.38 410C1193.24 406.97 1194.45 401.35 1195.09 397.5C1195.72 393.65 1196.52 379.25 1197.5 340.5L1276.5 339.97L1275.82 368.74C1275.38 387.24 1274.55 401.42 1273.47 408.5C1272.55 414.55 1270.69 423.32 1269.34 428C1267.99 432.67 1265.25 440.32 1263.25 445C1261.25 449.67 1258.15 455.97 1256.36 459C1254.57 462.02 1250.25 467.87 1246.76 472C1243.27 476.12 1236.44 482.65 1231.58 486.5C1226.72 490.35 1221.91 494.17 1220.89 495C1219.14 496.42 1221.24 500.05 1300.01 627.5L1299.5 639.5L1214.5 640L1181.5 581.93C1152.63 531.12 1148.25 523.93 1146.5 524.41C1145.4 524.72 1138.99 525.31 1120.01 526.5L1119.5 639.5L1041.5 639.5L1041.24 491C1041.1 409.32 1041.21 341.93 1041.48 341.24C1041.87 340.25 1050.27 340.03 1119.5 340.5ZM1343.02 339.98L1419.5 340.5L1420 570L1528 570L1528 640L1343 640L1343.02 339.98Z" />
</svg>