<svg version="1.2" baseProfile="tiny-ps" xmlns="http://www.w3.org/2000/svg" viewBox="0 0 1044 650" width="1044" height="650">
	<title>Logo-Klug-1-branco</title>
	<style>
		tspan { white-space:pre }
		.shp0 { fill: #ffffff } 
	</style>
	<path id="Logo-Klug-1-branco" fill-rule="evenodd" class="shp0" d="M718 0.19C729.07 0.11 743.12 0.65 750.5 1.44C757.65 2.22 766.65 3.34 770.5 3.95C774.35 4.55 782.67 6.18 789 7.58C795.32 8.97 805 11.41 810.5 13.01C816 14.6 824.77 17.46 830 19.37C835.22 21.27 843.1 24.37 847.5 26.27C851.9 28.17 858.87 31.39 863 33.43C867.12 35.47 878.92 42.17 889.22 48.32C899.51 54.47 907.95 59.95 907.96 60.5C907.97 61.05 899.77 65.65 871.5 79.95L862.5 74.6C857.55 71.65 850.8 67.89 847.5 66.24C844.2 64.59 837.22 61.44 832 59.23C826.77 57.02 817.1 53.41 810.5 51.2C803.9 49 793.77 46.04 788 44.63C782.22 43.22 771.87 41.17 765 40.06C758.12 38.96 744.62 37.56 735 36.95C722.3 36.15 713.25 36.15 702 36.94C693.47 37.54 681.77 38.73 676 39.58C670.22 40.42 660.55 42.24 654.5 43.61C648.45 44.98 636.3 48.49 627.5 51.41C618.7 54.33 605.65 59.38 598.5 62.64C591.35 65.89 580.1 71.76 573.5 75.66C566.9 79.57 556.02 86.76 549.33 91.63C542.64 96.51 532.35 104.77 526.46 110C520.58 115.22 512.07 123.55 507.56 128.5C503.04 133.45 496.62 140.87 493.29 145C489.97 149.12 483.9 157.45 479.81 163.5C475.72 169.55 469.83 179 466.72 184.5C463.61 190 458.86 199.45 456.16 205.5C453.46 211.55 449.41 221.67 447.17 228C444.92 234.32 441.96 243.55 440.58 248.5C439.2 253.45 437.12 262.22 435.96 268C434.8 273.77 433.23 283.45 432.48 289.5C431.72 295.55 430.8 306.35 430.43 313.5C430.04 321.03 430.25 333.44 430.94 343C431.59 352.07 432.95 364.67 433.97 371C434.99 377.32 437.26 388.35 439.02 395.5C440.78 402.65 443.79 413 445.7 418.5C447.62 424 451 432.77 453.22 438C455.43 443.22 459.18 451.32 461.55 456C463.91 460.67 468.1 468.1 475.83 480.5L471.4 488.5C468.97 492.9 464.62 500.89 461.74 506.24C458.86 511.6 456.05 515.98 455.5 515.96C454.95 515.94 449.47 507.51 443.32 497.21C437.18 486.92 429.69 473.55 426.7 467.5C423.7 461.45 419.21 451.32 416.72 445C414.24 438.67 410.59 428.32 408.63 422C406.67 415.67 403.95 405.77 402.59 400C401.23 394.22 399.22 384.1 398.12 377.5C397.03 370.9 395.58 359.42 394.92 352C394.13 343.22 393.93 330.64 394.34 316C394.69 303.62 395.62 288.77 396.42 283C397.22 277.22 398.82 267.77 399.98 262C401.14 256.22 403.47 246.32 405.16 240C406.85 233.67 409.72 224.22 411.54 219C413.35 213.77 416.95 204.55 419.53 198.5C422.11 192.45 426.38 183.22 429.01 178C431.63 172.77 435.91 164.9 438.52 160.5C441.12 156.1 445.5 149.12 448.26 145C451.01 140.87 455.98 133.9 459.3 129.5C462.62 125.1 469.02 117.22 473.54 112C478.06 106.77 487.11 97.32 493.67 91C500.22 84.67 509.84 76.08 515.04 71.89C520.24 67.71 530.12 60.47 537 55.81C543.87 51.14 553.55 45.03 558.5 42.22C563.45 39.41 573.12 34.45 580 31.2C586.87 27.95 597.22 23.45 603 21.21C608.77 18.97 619.57 15.35 627 13.17C634.42 10.99 646.13 8.07 653 6.68C659.87 5.29 670.9 3.44 677.5 2.58C684.1 1.72 691.52 0.87 694 0.68C696.47 0.5 707.27 0.28 718 0.19ZM994.25 37.01C995.76 37 998.46 37.66 1000.25 38.46C1002.04 39.26 1004.35 41.4 1005.38 43.21C1006.76 45.62 1007.12 47.7 1006.74 51C1006.33 54.49 984.72 96.14 910.74 236C858.23 335.27 814.19 417.56 812.88 418.85C811.57 420.14 729.27 464.18 630 516.72C477.97 597.18 448.71 612.33 444.5 612.78C439.84 613.27 439.23 613.06 435.5 609.73C431.75 606.38 431.5 605.82 431.58 600.83C431.65 595.74 436.02 587.26 527.21 415C580.15 315.01 624.05 233.21 625.64 231.62C627.28 229.96 694.76 193.71 783.5 146.81C868.75 101.76 950.42 58.62 965 50.95C980.35 42.88 992.66 37.01 994.25 37.01ZM644.04 249.5C513.22 496.72 475.41 568.61 475.62 568.75C475.83 568.89 547.7 531.09 635.33 484.75L794.67 400.5C925.12 153.66 962.85 81.82 962.67 81.59C962.5 81.37 890.73 119.06 803.19 165.34L644.04 249.5ZM1.28 104L113 104L113 266L123.75 266C129.66 266 138.1 265.56 142.5 265.02C146.9 264.47 155 262.89 160.5 261.5C166 260.1 174.21 257.17 178.75 254.98C184.31 252.3 189.2 248.93 193.75 244.64C197.46 241.14 202.6 235.17 205.17 231.39C207.75 227.6 211.18 221.57 212.81 218C214.44 214.42 216.69 208.57 217.8 205C218.91 201.42 220.53 193.55 221.39 187.5C222.26 181.45 223.42 169.64 223.98 161.25C224.54 152.86 225 136.55 225 104L339 104L338.99 122.25C338.99 132.29 338.54 149.27 338 160C337.45 170.72 336.52 184.67 335.93 191C335.34 197.32 333.94 207.22 332.83 213C331.72 218.77 329.92 226.42 328.83 230C327.74 233.57 325.48 240.32 323.8 245C322.11 249.67 318.5 258 315.76 263.5C313.03 269 308.48 276.87 305.65 281C302.83 285.12 295.56 293.61 289.51 299.86C283.45 306.11 274.22 314.45 269 318.41C263.77 322.36 258.66 326.02 257.64 326.55C255.98 327.4 261.94 337.48 373 517.5L372.5 534.5L249.67 534.5L202.45 451.5C159.58 376.14 155.01 368.52 152.86 368.74C151.56 368.87 143.97 369.22 136 369.53C128.02 369.83 119.59 370.29 113 371L113 535L1.5 535.03L0.76 529.76C0.35 526.87 0.01 434.05 0.01 323.5C0 212.95 0.28 118.34 0.64 113.25L1.28 104ZM985.5 139.06C986.05 139.06 990.86 146.36 996.18 155.28C1001.5 164.2 1008.14 176.11 1010.93 181.75C1013.72 187.39 1017.63 195.94 1019.62 200.75C1021.61 205.56 1024.49 213.1 1026.02 217.5C1027.55 221.9 1029.95 229.32 1031.35 234C1032.75 238.67 1035.03 247.67 1036.42 254C1037.81 260.32 1039.6 269.77 1040.41 275C1041.21 280.22 1042.41 289.9 1043.07 296.5C1043.86 304.37 1044.08 317.1 1043.71 333.5C1043.31 350.86 1042.53 362.47 1041.14 371.5C1040.05 378.65 1038.04 389.45 1036.67 395.5C1035.31 401.55 1032.75 411.45 1031 417.5C1029.25 423.55 1025.76 433.9 1023.26 440.5C1020.75 447.1 1016.26 457.67 1013.29 464C1010.31 470.32 1005.56 479.55 1002.74 484.5C999.91 489.45 995.28 497.1 992.44 501.5C989.61 505.9 983.85 514.11 979.64 519.75C975.44 525.39 967.35 535.29 961.66 541.75C955.97 548.21 946.64 557.79 940.91 563.03C935.18 568.26 926.22 575.97 921 580.16C915.77 584.34 906.1 591.34 899.5 595.71C892.9 600.07 883.9 605.69 879.5 608.2C875.1 610.7 868.35 614.33 864.5 616.26C860.65 618.19 852.55 621.89 846.5 624.47C840.45 627.06 830.55 630.88 824.5 632.97C818.45 635.06 807.2 638.35 799.5 640.29C791.8 642.23 779.87 644.75 773 645.88C766.12 647.02 755.55 648.44 749.5 649.04C743.45 649.63 729.72 650.12 719 650.12C708.27 650.12 694.55 649.62 688.5 649C682.45 648.37 672.1 646.97 665.5 645.89C658.9 644.8 647.87 642.54 641 640.87C634.12 639.19 623.1 636.01 616.5 633.8C609.9 631.59 600.67 628.23 596 626.32C591.32 624.42 582.1 620.14 575.5 616.82C568.9 613.5 555.17 605.83 545 599.79C534.38 593.48 526.93 588.45 527.5 588C528.05 587.56 536.49 583.11 564 569L574.25 574.95C579.89 578.23 590.12 583.58 597 586.85C603.87 590.11 614.22 594.47 620 596.53C625.77 598.59 635 601.57 640.5 603.14C646 604.71 654.77 606.88 660 607.95C665.22 609.03 675.12 610.72 682 611.7C691.35 613.03 700.79 613.47 719.5 613.45C740.45 613.44 747.01 613.06 760 611.11C768.52 609.84 781.8 607.22 789.5 605.28C797.2 603.35 808 600.2 813.5 598.28C819 596.35 828.67 592.56 835 589.84C841.32 587.12 851.45 582.15 857.5 578.8C863.55 575.45 872.55 570.02 877.5 566.73C882.45 563.44 890.77 557.54 896 553.63C901.22 549.71 912.97 539.08 922.09 530C931.22 520.93 941.13 510.35 944.13 506.5C947.13 502.65 951.84 496.35 954.59 492.5C957.35 488.65 962.25 481.22 965.46 476C968.68 470.77 974.15 460.87 977.62 454C981.09 447.12 986.14 435.65 988.84 428.5C991.54 421.35 995.14 410.55 996.85 404.5C998.55 398.45 1000.66 390.12 1001.53 386C1002.41 381.87 1004.01 372.65 1005.1 365.5C1006.22 358.16 1007.34 344.22 1007.68 333.5C1008.04 321.68 1007.82 309.77 1007.07 302C1006.42 295.12 1005.21 285.22 1004.38 280C1003.56 274.77 1001.83 265.77 1000.53 260C999.23 254.22 996.51 244.32 994.48 238C992.45 231.67 988.87 221.77 986.52 216C984.18 210.22 980.17 201.34 977.63 196.25C975.08 191.16 971.25 184.19 965.23 174.5L974.87 156.77C980.16 147.02 984.95 139.05 985.5 139.06Z" />
</svg>