<svg version="1.2" baseProfile="tiny-ps" xmlns="http://www.w3.org/2000/svg" viewBox="0 0 1153 1153" width="1153" height="1153">
	<title>Path 0</title>
	<style>
		tspan { white-space:pre }
		.shp0 { fill: #ffffff } 
	</style>
	<path id="Path 0" fill-rule="evenodd" class="shp0" d="M584 0.49C602.97 0.71 622.77 1.36 628 1.96C633.22 2.55 643.35 3.74 650.5 4.6C657.65 5.46 671.82 7.73 682 9.64C692.17 11.55 708.37 15.09 718 17.52C727.62 19.95 743.15 24.37 752.5 27.35C761.85 30.32 773.1 34.11 777.5 35.76C781.9 37.41 790.67 40.88 797 43.46C803.32 46.05 818.4 53.03 830.5 58.98C842.6 64.93 858.12 73.05 865 77.01C871.87 80.97 882 87.14 887.5 90.72C893 94.29 904.16 102.23 912.3 108.36C920.44 114.49 926.74 119.79 926.3 120.14C925.86 120.5 914.47 126.45 901 133.37C887.52 140.3 875.94 145.97 875.25 145.98C874.56 145.99 862.86 139.18 849.25 130.84C834.73 121.95 816.24 111.66 804.5 105.95C793.5 100.6 778.2 93.74 770.5 90.71C762.8 87.68 749.52 82.88 741 80.04C732.47 77.2 717.85 72.9 708.5 70.49C699.15 68.07 685.42 64.93 678 63.5C670.57 62.08 658.65 60.05 651.5 59C644.35 57.95 630.62 56.4 621 55.55C610.94 54.67 592.65 54.01 578 54C563.97 54 544.4 54.66 534.5 55.48C524.6 56.29 511.55 57.62 505.5 58.44C499.45 59.26 489.32 60.86 483 62.01C476.67 63.15 465.65 65.45 458.5 67.11C451.35 68.78 439.42 71.89 432 74.04C424.57 76.18 413.32 79.7 407 81.86C400.67 84.02 390.32 87.81 384 90.27C377.67 92.74 365.07 98.19 356 102.39C346.92 106.58 332.52 113.9 324 118.65C315.47 123.4 302.87 130.88 296 135.28C289.12 139.68 278.77 146.66 273 150.8C267.22 154.94 258.22 161.71 253 165.84C247.77 169.96 240.35 176.07 236.5 179.4C232.65 182.74 224.59 189.98 218.59 195.48C212.59 200.99 201.63 212.02 194.22 220C186.82 227.97 175.71 240.8 169.54 248.5C163.37 256.2 155.24 266.77 151.47 272C147.7 277.22 141.41 286.45 137.48 292.5C133.55 298.55 126.72 309.8 122.3 317.5C117.87 325.2 112.23 335.55 109.74 340.5C107.26 345.45 102.88 354.67 100.02 361C97.15 367.32 92.43 378.57 89.53 386C86.62 393.42 81.76 407.15 78.72 416.5C75.67 425.85 71.35 440.92 69.1 450C66.86 459.07 63.9 472.57 62.53 480C61.16 487.42 59.16 500.25 58.08 508.5C57 516.75 55.61 530.25 55 538.5C54.38 546.75 53.89 564.3 53.9 577.5C53.91 590.7 54.4 607.8 55 615.5C55.59 623.2 56.75 634.9 57.58 641.5C58.41 648.1 60 658.9 61.11 665.5C62.23 672.1 64.51 683.57 66.18 691C67.85 698.42 70.95 710.8 73.06 718.5C75.18 726.2 78.76 737.9 81.03 744.5C83.3 751.1 87.65 762.8 90.69 770.5C93.73 778.2 100.58 793.5 105.92 804.5C111.25 815.5 118.47 829.45 121.95 835.5C125.44 841.55 131.57 851.67 135.58 858C139.59 864.32 144.26 870.85 145.96 872.5C147.66 874.15 149.03 875.84 149.02 876.25C149.01 876.66 142.86 888.14 135.35 901.75C127.85 915.36 121.37 926.95 120.95 927.5C120.53 928.07 115.68 922.43 109.78 914.5C104.05 906.8 96.94 896.9 93.98 892.5C91.01 888.1 84.84 878.2 80.25 870.5C75.67 862.8 67.47 847.72 62.05 837C56.62 826.27 49.39 810.97 45.98 803C42.57 795.02 37.09 781.07 33.8 772C30.51 762.92 25.86 748.75 23.47 740.5C21.07 732.25 17.99 721 16.62 715.5C15.25 710 12.77 698.75 11.1 690.5C9.44 682.25 7.16 669.2 6.05 661.5C4.94 653.8 3.33 640.97 2.47 633C1.62 625.02 0.66 604.32 0.34 587C-0.12 562.28 0.12 550.98 1.44 534.5C2.36 522.95 3.99 506.97 5.06 499C6.13 491.02 8.1 478.65 9.45 471.5C10.79 464.35 13.28 452.42 14.98 445C16.68 437.57 19.43 426.77 21.09 421C22.75 415.22 26.39 403.52 29.19 395C31.98 386.47 36.87 372.97 40.04 365C43.22 357.02 48.36 344.87 51.47 338C54.58 331.12 60.42 319.2 64.44 311.5C68.47 303.8 74.79 292.32 78.5 286C82.2 279.67 88.42 269.55 92.31 263.5C96.2 257.45 102.76 247.77 106.89 242C111.02 236.22 118.67 226.1 123.89 219.5C129.1 212.9 137.89 202.32 143.41 196C148.93 189.67 160.43 177.51 168.97 168.97C177.51 160.43 189.67 148.93 196 143.41C202.32 137.89 212.9 129.1 219.5 123.89C226.1 118.67 236.22 111.02 242 106.88C247.77 102.75 257.67 96.07 264 92.03C270.32 87.99 280.67 81.67 287 77.99C293.32 74.31 304.12 68.32 311 64.69C317.87 61.06 329.57 55.33 337 51.96C344.42 48.58 357.7 43 366.5 39.55C375.3 36.11 388.8 31.22 396.5 28.69C404.2 26.17 415.22 22.76 421 21.11C426.77 19.47 437.57 16.72 445 15.01C452.42 13.29 465.7 10.6 474.5 9.02C483.3 7.44 496.57 5.39 504 4.45C511.42 3.52 524.7 2.16 533.5 1.43C544.24 0.54 560.85 0.24 584 0.49ZM1065.39 74.35C1067.65 74.66 1070.62 75.78 1072 76.83C1073.37 77.88 1075.4 79.96 1076.5 81.44C1077.97 83.43 1078.49 85.65 1078.45 89.82C1078.4 95.41 1075.67 100.65 909.34 415C809.24 604.18 739.07 735.72 737.31 737.5C735.49 739.33 609.2 806.64 413.91 909.87C94.68 1078.62 93.48 1079.24 88.5 1078.83C85.67 1078.6 82.2 1077.53 80.5 1076.36C78.85 1075.23 76.65 1072.54 75.62 1070.4C74.33 1067.74 73.9 1065.23 74.25 1062.5C74.6 1059.73 126.66 960.32 243.93 738.5C367.14 505.45 413.97 417.73 416.3 415.68C418.06 414.12 556.07 340.63 723 252.35C889.92 164.08 1034.33 87.79 1043.89 82.82C1059.69 74.61 1061.67 73.83 1065.39 74.35ZM437.28 439.65C436.61 440.67 366.56 572.9 281.62 733.5C196.68 894.1 127.37 1025.61 127.59 1025.75C127.82 1025.89 260.16 956.14 421.68 870.75L715.36 715.5C956.17 259.8 1025.92 127.45 1025.71 127.38C1025.51 127.32 893.3 197.13 731.92 282.53C570.54 367.93 437.95 438.64 437.28 439.65ZM1036.92 230C1037.21 230 1041.55 235.74 1046.58 242.75C1051.61 249.76 1057.95 258.87 1060.68 263C1063.41 267.12 1068.61 275.45 1072.23 281.5C1075.85 287.55 1082.49 299.47 1086.99 308C1091.49 316.52 1097.65 328.9 1100.68 335.5C1103.72 342.1 1108.92 354.25 1112.24 362.5C1115.56 370.75 1121.09 386.05 1124.53 396.5C1127.96 406.95 1132.61 422.7 1134.84 431.5C1137.08 440.3 1140.02 452.67 1141.38 459C1142.74 465.32 1144.99 477.92 1146.39 487C1147.78 496.07 1149.67 510.25 1150.57 518.5C1151.57 527.62 1152.42 546.24 1152.74 566C1153.07 586.54 1152.82 604.57 1152.07 615C1151.42 624.07 1150 638.7 1148.91 647.5C1147.83 656.3 1146.02 668.9 1144.89 675.5C1143.76 682.1 1141.08 695.15 1138.95 704.5C1136.82 713.85 1133.28 727.8 1131.08 735.5C1128.89 743.2 1125.09 755.35 1122.65 762.5C1120.21 769.65 1116.19 780.67 1113.72 787C1111.25 793.32 1106.22 805.25 1102.54 813.5C1098.85 821.75 1092.89 834.12 1089.28 841C1085.67 847.87 1079.46 859.12 1075.49 866C1071.52 872.87 1064.76 883.9 1060.48 890.5C1056.19 897.1 1049.09 907.45 1044.71 913.5C1040.32 919.55 1033.54 928.55 1029.64 933.5C1025.74 938.45 1017.06 948.8 1010.35 956.5C1003.65 964.2 990.59 977.96 981.33 987.08C972.07 996.2 959.55 1007.92 953.5 1013.12C947.45 1018.32 937.32 1026.63 931 1031.6C924.67 1036.56 914.32 1044.26 908 1048.69C901.67 1053.13 891.55 1059.89 885.5 1063.72C879.45 1067.56 869.77 1073.39 864 1076.69C858.22 1080 847.87 1085.65 841 1089.27C834.12 1092.88 821.75 1098.86 813.5 1102.55C805.25 1106.24 793.32 1111.27 787 1113.74C780.67 1116.21 769.65 1120.23 762.5 1122.66C755.35 1125.1 743.2 1128.88 735.5 1131.08C727.8 1133.27 714.97 1136.59 707 1138.46C699.02 1140.33 685.97 1143.01 678 1144.4C670.02 1145.8 656.3 1147.83 647.5 1148.9C638.7 1149.98 624.52 1151.4 616 1152.06C605.8 1152.85 588.69 1153.07 566 1152.7C545.33 1152.36 526.09 1151.52 518 1150.6C510.57 1149.75 500.9 1148.57 496.5 1147.97C492.1 1147.37 483.32 1145.97 477 1144.87C470.67 1143.76 458.3 1141.27 449.5 1139.34C440.7 1137.4 426.75 1133.86 418.5 1131.47C410.25 1129.07 397.42 1125.03 390 1122.48C382.57 1119.93 370.2 1115.35 362.5 1112.31C354.8 1109.27 341.07 1103.32 332 1099.1C322.92 1094.89 308.3 1087.46 299.5 1082.61C290.7 1077.75 277.42 1069.96 270 1065.29C262.57 1060.63 249.43 1051.57 240.79 1045.16C232.15 1038.74 225.18 1033.12 225.29 1032.66C225.41 1032.19 236.52 1026.02 250 1018.94C263.47 1011.87 274.95 1006.04 275.5 1006.01C276.05 1005.97 287.52 1012.63 301 1020.8C314.47 1028.97 329.77 1037.95 335 1040.76C340.22 1043.56 350.35 1048.53 357.5 1051.8C364.65 1055.07 376.8 1060.22 384.5 1063.26C392.2 1066.29 404.8 1070.88 412.5 1073.45C420.2 1076.02 435.05 1080.32 445.5 1083.01C455.95 1085.71 470.57 1089.04 478 1090.43C485.42 1091.82 496 1093.62 501.5 1094.43C507 1095.24 519.37 1096.68 529 1097.64C541.16 1098.84 555.19 1099.36 575 1099.35C590.67 1099.33 609.57 1098.79 617 1098.13C624.42 1097.48 636.12 1096.25 643 1095.4C649.87 1094.55 661.8 1092.74 669.5 1091.38C677.2 1090.01 690.02 1087.33 698 1085.41C705.97 1083.49 717.22 1080.55 723 1078.87C728.77 1077.2 740.02 1073.57 748 1070.81C755.97 1068.05 766.77 1064.09 772 1062.01C777.22 1059.92 788.47 1055.01 797 1051.09C805.52 1047.18 818.35 1040.77 825.5 1036.85C832.65 1032.94 845.7 1025.23 854.5 1019.72C863.3 1014.21 875.45 1006.1 881.5 1001.69C887.55 997.29 896.77 990.3 902 986.15C907.22 982.01 916.45 974.27 922.5 968.96C928.55 963.65 939.31 953.5 946.4 946.4C953.5 939.31 963.65 928.55 968.96 922.5C974.27 916.45 982.01 907.22 986.15 902C990.3 896.77 997.29 887.55 1001.68 881.5C1006.08 875.45 1013.51 864.42 1018.19 857C1022.88 849.57 1030.7 836.3 1035.58 827.5C1040.46 818.7 1047.55 804.75 1051.33 796.5C1055.11 788.25 1060.58 775.42 1063.48 768C1066.38 760.57 1071.24 746.85 1074.29 737.5C1077.33 728.15 1081.88 712.17 1084.38 702C1086.88 691.82 1090.29 675.4 1091.95 665.5C1093.6 655.6 1095.64 641.42 1096.48 634C1097.32 626.57 1098.51 609.47 1099.13 596C1099.98 577.58 1099.97 566.54 1099.09 551.5C1098.46 540.5 1097.27 525.65 1096.46 518.5C1095.65 511.35 1093.6 497.17 1091.9 487C1090.21 476.82 1086.66 459.95 1084.01 449.5C1081.36 439.05 1077.29 424.65 1074.97 417.5C1072.65 410.35 1068.83 399.32 1066.48 393C1064.12 386.67 1060.08 376.55 1057.49 370.5C1054.9 364.45 1049.18 352.3 1044.78 343.5C1040.38 334.7 1030.53 317.26 1022.89 304.75C1015.25 292.24 1009.01 281.44 1009.03 280.75C1009.05 280.06 1015.21 268.36 1022.73 254.75C1030.24 241.14 1036.63 230 1036.92 230Z" />
</svg>