<svg version="1.2" baseProfile="tiny-ps" xmlns="http://www.w3.org/2000/svg" viewBox="0 0 2166 984" width="2166" height="984">
	<title>Path 0</title>
	<style>
		tspan { white-space:pre }
		.shp0 { opacity: 0.996;fill: #ffffff } 
	</style>
	<path id="Path 0" fill-rule="evenodd" class="shp0" d="M489.5 0.14C502.15 0.07 518.8 0.47 526.5 1.03C534.2 1.59 547.47 2.95 556 4.05C564.52 5.15 580.27 7.83 591 10C601.72 12.17 617.47 15.96 626 18.41C634.52 20.87 646.9 24.74 653.5 27.01C660.1 29.28 671.57 33.64 679 36.69C686.42 39.75 699.7 45.76 708.5 50.05C717.3 54.34 738.9 66.61 756.5 77.31C774.1 88.01 788.43 97.16 788.34 97.63C788.25 98.11 775.65 104.87 732.5 126.8L716.5 116.84C707.7 111.36 693.3 103.24 684.5 98.8C675.7 94.36 664.9 89.17 660.5 87.26C656.1 85.36 646.54 81.6 639.25 78.9C631.96 76.21 619.14 72.02 610.75 69.6C602.36 67.18 590.1 64.04 583.5 62.62C576.9 61.19 565.87 59.13 559 58.03C552.12 56.93 539.3 55.35 530.5 54.51C521.6 53.67 504.52 53 492 53C479.62 53.01 461.85 53.68 452.5 54.5C443.15 55.32 428.52 57.14 420 58.56C411.47 59.97 397.3 62.88 388.5 65.02C379.7 67.17 366.65 70.79 359.5 73.08C352.35 75.37 340.42 79.61 333 82.51C325.57 85.41 313.65 90.56 306.5 93.95C299.35 97.35 287.42 103.56 280 107.75C272.57 111.95 262 118.3 256.5 121.87C251 125.43 243.35 130.62 239.5 133.39C235.65 136.17 228 141.97 222.5 146.3C217 150.63 206.87 159.25 200 165.45C193.12 171.66 182.77 181.86 176.98 188.12C171.19 194.38 163.72 202.65 160.38 206.5C157.04 210.35 150.55 218.45 145.96 224.5C141.37 230.55 133.48 241.8 128.42 249.5C123.36 257.2 115.7 269.8 111.4 277.5C107.09 285.2 100.8 297.57 97.4 305C94.01 312.42 88.97 324.35 86.21 331.5C83.46 338.65 79.34 350.35 77.06 357.5C74.78 364.65 71.18 377.7 69.05 386.5C66.91 395.3 64.24 407.9 63.11 414.5C61.97 421.1 60.36 432.12 59.53 439C58.7 445.87 57.57 460.84 57.01 472.25C56.33 486.23 56.33 499.12 57.01 511.75C57.56 522.06 58.7 536.12 59.53 543C60.36 549.87 61.74 559.77 62.6 565C63.46 570.22 65.46 580.35 67.03 587.5C68.6 594.65 71.91 607.47 74.39 616C76.86 624.52 80.65 636.22 82.81 642C84.96 647.77 88.36 656.44 90.36 661.25C92.36 666.06 97.82 677.65 102.5 687C107.17 696.35 115.3 711.09 120.56 719.75C125.82 728.41 129.98 736.03 129.81 736.67C129.64 737.32 122.75 750.01 114.5 764.87C103.04 785.52 99.23 791.62 98.35 790.7C97.71 790.04 88.57 775.32 78.02 758C67.28 740.34 54.98 718.59 50.02 708.5C45.17 698.6 38.5 683.75 35.21 675.5C31.92 667.25 26.95 653.52 24.16 645C21.38 636.47 17.3 622.52 15.1 614C12.9 605.47 9.97 592.42 8.6 585C7.22 577.57 5.4 566.55 4.54 560.5C3.68 554.45 2.31 541.85 1.5 532.5C0.68 523.15 0.01 505.15 0.02 492.5C0.02 479.85 0.68 461.85 1.48 452.5C2.28 443.15 3.66 430.32 4.54 424C5.43 417.67 6.99 408 8 402.5C9.01 397 11.03 387.32 12.48 381C13.94 374.67 16.88 363.42 19.03 356C21.18 348.57 24.47 338 26.36 332.5C28.24 327 31.43 318.22 33.45 313C35.46 307.77 39.86 297.42 43.22 290C46.58 282.57 52.79 269.97 57.02 262C61.26 254.02 67.18 243.45 70.18 238.5C73.19 233.55 78.03 225.9 80.94 221.5C83.85 217.1 88.97 209.67 92.33 205C95.69 200.32 101.8 192.22 105.92 187C110.04 181.77 117.78 172.55 123.11 166.5C128.45 160.45 139.5 148.95 147.66 140.94C155.82 132.93 165.87 123.45 170 119.88C174.12 116.31 181.77 110.02 187 105.91C192.22 101.8 200.32 95.69 205 92.33C209.67 88.98 217.55 83.56 222.5 80.29C227.45 77.02 237.12 71.03 244 66.99C250.87 62.94 265.95 55.02 277.5 49.39C289.05 43.77 305.47 36.48 314 33.2C322.52 29.92 333.77 25.86 339 24.17C344.22 22.48 353.22 19.76 359 18.11C364.77 16.46 374.67 13.93 381 12.48C387.32 11.03 397.45 8.96 403.5 7.87C409.55 6.78 419.67 5.18 426 4.33C432.32 3.47 444.02 2.21 452 1.52C459.97 0.83 476.85 0.21 489.5 0.14ZM905.75 65.53C908.09 65.79 911.24 66.83 912.75 67.85C914.26 68.87 916.29 71.35 917.25 73.35C918.21 75.36 919 78.57 919 80.5C919 82.48 917.53 86.92 915.61 90.75C913.74 94.46 849.17 216.75 772.12 362.5C667.07 561.19 631.2 628.2 628.76 630.31C626.97 631.85 503.77 697.49 84.5 919.21L78.84 918.85C74.51 918.58 72.54 917.91 70.46 916C68.97 914.62 67.13 912.04 66.37 910.25C65.62 908.46 65 905.65 65 904C65 902.35 66.76 897.51 68.9 893.25C71.05 888.99 135.62 766.7 212.4 621.5C289.19 476.3 353.07 356.37 354.38 355C355.68 353.62 478.64 288.08 627.62 209.35C776.61 130.62 899.17 65.94 900 65.63C900.82 65.31 903.41 65.27 905.75 65.53ZM376.33 376.5C175.5 756.25 117.38 866.61 117.6 866.75C117.82 866.89 227.91 808.92 362.25 737.93C496.59 666.94 607.01 608.33 607.63 607.68C608.26 607.03 666.87 496.59 737.88 362.25C808.9 227.91 866.85 117.83 866.67 117.62C866.49 117.41 756.09 175.57 621.34 246.87L376.33 376.5ZM890.61 201.17C891.25 201.9 899.54 215.32 909.05 231C918.72 246.95 930.17 267.43 935.06 277.5C939.85 287.4 946.72 302.92 950.3 312C953.89 321.07 958.92 335.25 961.48 343.5C964.04 351.75 967.65 364.57 969.5 372C971.34 379.42 973.78 390.22 974.91 396C976.04 401.77 977.64 410.77 978.47 416C979.29 421.22 980.69 431.57 981.58 439C982.52 446.91 983.4 464.72 983.71 482C984.04 500.32 983.8 517.38 983.08 527C982.43 535.52 981.23 547.9 980.4 554.5C979.58 561.1 977.98 571.67 976.86 578C975.75 584.32 973.49 595.35 971.85 602.5C970.22 609.65 967.53 620.22 965.89 626C964.24 631.77 961.28 641.45 959.31 647.5C957.34 653.55 953.06 665.25 949.79 673.5C946.53 681.75 939.69 697.05 934.6 707.5C929.51 717.95 922.19 731.9 918.33 738.5C914.47 745.1 908.69 754.55 905.49 759.5C902.29 764.45 895.73 773.9 890.92 780.5C886.11 787.1 878.87 796.61 874.84 801.64C870.8 806.67 861.87 816.98 855 824.56C848.12 832.14 835.97 844.39 828 851.79C820.02 859.18 807.2 870.27 799.5 876.41C791.8 882.56 781 890.76 775.5 894.62C770 898.49 761.22 904.38 756 907.7C750.77 911.03 742 916.38 736.5 919.58C731 922.78 717.95 929.55 707.5 934.62C697.05 939.7 682.65 946.19 675.5 949.05C668.35 951.91 657.32 956.01 651 958.16C644.67 960.31 633.99 963.63 627.25 965.53C620.51 967.44 610.16 970.14 604.25 971.53C598.34 972.93 587.42 975.15 580 976.49C572.57 977.82 561.1 979.59 554.5 980.43C547.9 981.27 536.42 982.44 529 983.04C521.57 983.63 504.25 984.11 490.5 984.1C476.75 984.09 460.1 983.61 453.5 983.03C446.9 982.46 435.87 981.28 429 980.41C422.12 979.55 409.3 977.5 400.5 975.85C391.7 974.21 377.52 971.07 369 968.88C360.47 966.68 345.62 962.25 336 959.03C326.37 955.82 311.52 950.27 303 946.72C294.47 943.16 280.97 936.99 273 933C265.02 929.02 243.99 916.93 226.26 906.13C208.54 895.33 194.36 886.22 194.76 885.88C195.17 885.54 207.76 878.9 222.75 871.13C237.74 863.36 250.34 856.98 250.75 856.96C251.16 856.94 259.37 861.74 269 867.62C278.62 873.5 293.25 881.62 301.5 885.67C309.75 889.72 323.25 895.69 331.5 898.93C339.75 902.17 352.8 906.84 360.5 909.3C368.2 911.77 380.12 915.15 387 916.82C393.87 918.49 404.22 920.76 410 921.86C415.77 922.96 428.15 924.9 437.5 926.16C452.55 928.2 458.57 928.47 490 928.47C518.04 928.48 528.55 928.11 540 926.7C547.97 925.72 560.57 923.8 568 922.44C575.42 921.08 587.8 918.42 595.5 916.52C603.2 914.62 615.35 911.21 622.5 908.92C629.65 906.64 642.25 902.09 650.5 898.8C658.75 895.51 671.8 889.74 679.5 885.97C687.2 882.2 699.12 875.87 706 871.91C712.87 867.94 723.22 861.54 729 857.68C734.77 853.82 744.45 846.96 750.5 842.45C756.55 837.93 766.66 829.79 772.96 824.37C779.26 818.94 790.47 808.42 797.86 801C805.26 793.57 815.82 782.1 821.35 775.5C826.87 768.9 834.57 759.22 838.46 754C842.35 748.77 848.08 740.67 851.18 736C854.29 731.32 859.83 722.55 863.48 716.5C867.13 710.45 874.35 696.95 879.51 686.5C884.67 676.05 891.11 661.87 893.82 655C896.54 648.12 900.88 635.97 903.49 628C906.09 620.02 909.97 606.52 912.11 598C914.26 589.47 917.11 576.2 918.46 568.5C919.81 560.8 921.65 548.42 922.55 541C923.5 533.14 924.41 515.79 924.72 499.5C925.05 481.85 924.81 466.32 924.06 457.5C923.41 449.8 921.98 436.97 920.87 429C919.76 421.02 917.75 409.1 916.41 402.5C915.06 395.9 912.4 384.54 910.48 377.25C908.57 369.96 905.16 358.49 902.91 351.75C900.67 345.01 896.78 334.32 894.29 328C891.79 321.67 886.29 309.3 882.07 300.5C877.85 291.7 870.71 278.31 866.2 270.75C861.69 263.19 857.95 256.74 857.89 256.43C857.83 256.11 863.74 245.2 871.03 232.18C878.32 219.15 885.45 206.55 886.87 204.17C888.94 200.72 889.69 200.12 890.61 201.17ZM2029 336.74C2034.77 337.01 2044.56 338.07 2050.75 339.11C2056.94 340.15 2067.06 342.63 2073.25 344.62C2079.44 346.62 2088.77 350.4 2094 353.03C2099.22 355.66 2106.87 360.19 2111 363.09C2115.12 366 2122.37 372.23 2127.1 376.94C2131.83 381.65 2138.33 389.55 2141.55 394.5C2144.77 399.45 2148.84 406.65 2150.59 410.5C2152.35 414.35 2155.12 421.77 2156.76 427C2158.4 432.22 2160.02 437.96 2161 443L2085 443L2082.85 438.75C2081.67 436.41 2079.16 432.47 2077.28 430C2075.39 427.52 2071.52 423.56 2068.68 421.18C2065.83 418.81 2061.25 415.72 2058.5 414.31C2055.75 412.91 2050.12 410.84 2046 409.72C2040.09 408.11 2035.52 407.68 2024.5 407.7C2013.27 407.72 2008.92 408.16 2002.5 409.91C1998.1 411.11 1991.35 413.74 1987.5 415.75C1982.97 418.12 1977.82 422.07 1972.91 426.96C1968.33 431.51 1963.79 437.27 1961.44 441.5C1959.31 445.35 1956.5 451.42 1955.21 455C1953.92 458.57 1952.25 464.42 1951.5 468C1950.75 471.57 1949.84 478.32 1949.47 483C1949.1 487.67 1949.25 495.55 1949.81 500.5C1950.36 505.45 1951.58 512.65 1952.52 516.5C1953.45 520.35 1955.9 527.1 1957.96 531.5C1960.01 535.9 1963.9 542.38 1966.6 545.9C1969.29 549.43 1973.75 554.08 1976.5 556.26C1979.25 558.43 1984.65 561.79 1988.5 563.73C1992.35 565.66 1998.87 568.13 2003 569.22C2008.65 570.71 2013.83 571.21 2024 571.24C2032.94 571.27 2040.03 570.73 2045 569.64C2049.12 568.73 2055.76 566.42 2059.75 564.5C2063.74 562.57 2069.07 559.09 2071.61 556.75C2074.14 554.41 2078.16 549.57 2080.53 546C2082.91 542.42 2085.11 538.71 2085.42 537.75C2085.96 536.11 2084 535.98 2023.5 535.5L2023 469L2165 469L2165.64 476.75C2165.99 481.01 2166.03 492.6 2165.72 502.5C2165.41 512.4 2164.44 524.55 2163.55 529.5C2162.67 534.45 2161.03 541.87 2159.91 546C2158.79 550.12 2156.24 557.55 2154.23 562.5C2152.23 567.45 2148.85 574.65 2146.72 578.5C2144.59 582.35 2140.52 588.61 2137.68 592.41C2134.83 596.22 2129.12 602.46 2125 606.3C2120.87 610.13 2114.8 615.2 2111.5 617.57C2108.2 619.93 2101.22 624.06 2096 626.74C2090.77 629.42 2082 633.05 2076.5 634.82C2071 636.59 2062 638.94 2056.5 640.04C2050.47 641.26 2040.15 642.3 2030.5 642.67C2020.3 643.05 2010.7 642.83 2004 642.05C1998.22 641.38 1988.55 639.58 1982.5 638.05C1976.45 636.52 1966.55 633.3 1960.5 630.89C1954.46 628.47 1945.23 623.95 1940 620.83C1934.78 617.71 1926.9 612.26 1922.5 608.73C1918.1 605.19 1911.19 598.52 1907.14 593.9C1903.09 589.28 1897.64 582.35 1895.03 578.5C1892.41 574.65 1888.19 567.34 1885.64 562.25C1883.09 557.16 1879.85 549.51 1878.44 545.25C1877.03 540.99 1875.02 533.45 1873.99 528.5C1872.95 523.55 1871.63 515.67 1871.05 511C1870.47 506.32 1870 496.87 1870 490C1870 483.12 1870.47 473.67 1871.05 469C1871.63 464.32 1872.79 457.12 1873.62 453C1874.46 448.87 1876.07 442.35 1877.21 438.5C1878.36 434.65 1881.09 427.45 1883.28 422.5C1885.48 417.55 1889.74 409.67 1892.76 405C1895.78 400.32 1901.45 392.71 1905.37 388.08C1909.29 383.45 1915.42 377.14 1919 374.05C1922.57 370.96 1928.87 366.15 1933 363.35C1937.12 360.56 1944.32 356.35 1949 353.99C1953.67 351.64 1962.34 347.98 1968.25 345.86C1974.16 343.74 1983.61 341.07 1989.25 339.93C1994.89 338.79 2003.77 337.5 2009 337.06C2014.22 336.62 2023.22 336.48 2029 336.74ZM1041 340L1120 340L1119.99 453.5L1132.25 452.82C1139.41 452.42 1147.82 451.26 1152.5 450.02C1156.9 448.86 1163.16 446.47 1166.41 444.7C1169.66 442.94 1174.61 439.22 1177.41 436.43C1180.22 433.63 1184.38 427.81 1186.7 423.43C1189.01 419.07 1191.79 412.12 1192.87 408C1193.95 403.87 1195.32 395.1 1195.91 388.5C1196.5 381.9 1196.98 368.29 1197 340L1276.5 340L1275.79 369.25C1275.36 387.12 1274.48 402.39 1273.53 408.5C1272.68 414 1271.06 421.87 1269.93 426C1268.81 430.12 1266.28 437.55 1264.31 442.5C1262.35 447.45 1259.03 454.42 1256.93 458C1254.83 461.57 1250.25 467.87 1246.76 472C1243.27 476.12 1236.44 482.65 1231.58 486.5C1226.72 490.35 1221.91 494.17 1220.89 495C1219.15 496.42 1221.25 500.06 1299.98 627.5L1300 640L1214.5 639.98L1181.5 581.93C1152.66 531.2 1148.25 523.94 1146.5 524.42C1145.4 524.72 1138.99 525.31 1119.99 526.5L1120 640L1041 640L1041 340ZM1343 340L1420 340L1420 570L1528 570L1528 640L1343 640L1343 340ZM1577.02 339.98L1650.5 340.5L1651.5 548.5L1654.13 553.5C1655.57 556.25 1658.61 560.19 1660.88 562.25C1663.14 564.31 1667.14 567.08 1669.75 568.4C1672.36 569.71 1677.2 571.58 1680.5 572.54C1684.21 573.62 1689.93 574.29 1695.5 574.29C1700.82 574.3 1707.16 573.61 1711 572.59C1714.57 571.65 1719.52 569.78 1722 568.44C1724.47 567.09 1728.19 564.64 1730.25 563C1732.55 561.16 1735.25 557.4 1740.5 546.54L1740.94 340L1814.86 340L1814.64 449.25C1814.44 550.37 1814.29 558.95 1812.66 564.5C1811.69 567.8 1809.8 573.42 1808.47 577C1807.13 580.57 1804.56 585.97 1802.75 589C1800.93 592.02 1797.11 597.42 1794.25 601C1791.39 604.57 1786.45 609.79 1783.28 612.58C1780.1 615.37 1775.25 619.27 1772.5 621.23C1769.75 623.2 1763.45 626.89 1758.5 629.43C1753.55 631.98 1745.45 635.35 1740.5 636.93C1735.55 638.51 1727.67 640.62 1723 641.62C1716.5 643.02 1710.14 643.45 1696 643.45C1681.83 643.45 1675.51 643.02 1669 641.62C1664.32 640.61 1656.9 638.66 1652.5 637.27C1648.1 635.89 1640 632.5 1634.5 629.74C1629 626.98 1621.35 622.38 1617.5 619.52C1613.65 616.66 1607.46 611.1 1603.75 607.16C1600.04 603.22 1595.61 598.09 1593.91 595.75C1592.2 593.41 1589.33 588.57 1587.52 585C1585.72 581.42 1583.1 574.9 1581.71 570.5C1580.32 566.1 1578.69 559.01 1578.09 554.75C1577.36 549.55 1577 512.95 1577.01 443.49L1577.02 339.98Z" />
</svg>