<?xml version="1.0" standalone="no"?>
<!DOCTYPE svg PUBLIC "-//W3C//DTD SVG 20010904//EN"
 "http://www.w3.org/TR/2001/REC-SVG-20010904/DTD/svg10.dtd">
<svg version="1.0" xmlns="http://www.w3.org/2000/svg"
 width="1153.000000pt" height="1153.000000pt" viewBox="0 0 1153.000000 1153.000000"
 preserveAspectRatio="xMidYMid meet">

<g transform="translate(0.000000,1153.000000) scale(0.100000,-0.100000)"
fill="#000000" stroke="none">
<path d="M5525 11524 c-447 -26 -752 -69 -1111 -154 -606 -144 -1199 -397
-1744 -743 -1433 -911 -2405 -2435 -2620 -4104 -36 -285 -45 -434 -45 -778 1
-406 21 -642 86 -1005 152 -850 518 -1705 1004 -2350 59 -78 108 -140 111
-138 4 5 240 431 266 482 l20 38 -35 37 c-75 78 -259 384 -387 646 -292 596
-461 1213 -521 1900 -15 168 -14 619 0 805 124 1564 914 2959 2191 3871 1190
850 2698 1156 4149 844 564 -122 1083 -332 1601 -650 124 -75 235 -142 246
-147 18 -9 64 12 279 122 141 73 253 136 248 140 -39 35 -276 206 -379 274
-347 228 -816 457 -1219 596 -464 160 -890 250 -1415 300 -109 10 -620 20
-725 14z"/>
<path d="M10610 10782 c-44 -7 -6422 -3385 -6453 -3417 -35 -36 -3404 -6405
-3413 -6452 -18 -97 76 -188 179 -170 47 8 6416 3379 6450 3413 21 22 2157
4046 3284 6187 126 240 135 261 131 302 -11 89 -92 152 -178 137z m-1890
-3449 c-848 -1605 -1550 -2928 -1559 -2941 -10 -15 -1108 -601 -2951 -1576
-1614 -854 -2937 -1551 -2939 -1550 -2 2 696 1326 1550 2942 l1554 2940 2940
1555 c1617 855 2942 1554 2943 1552 2 -2 -690 -1317 -1538 -2922z"/>
<path d="M10332 9168 c-160 -285 -242 -443 -237 -455 3 -9 63 -111 134 -228
155 -255 217 -370 309 -575 468 -1040 582 -2207 326 -3325 -256 -1112 -877
-2119 -1759 -2850 -1598 -1325 -3830 -1579 -5688 -649 -70 36 -242 134 -383
220 -140 85 -261 157 -268 160 -11 4 -516 -251 -516 -262 0 -2 63 -51 141
-109 705 -533 1639 -912 2559 -1040 346 -49 867 -69 1181 -46 829 61 1528 252
2242 612 546 276 1016 617 1463 1064 451 450 795 921 1073 1472 361 716 555
1430 612 2251 15 215 6 716 -16 927 -74 705 -259 1350 -565 1970 -117 237
-166 326 -297 535 -83 132 -261 379 -275 380 -3 0 -20 -24 -36 -52z"/>
</g>
</svg>
