<svg version="1.2" baseProfile="tiny-ps" xmlns="http://www.w3.org/2000/svg" viewBox="0 0 2166 984" width="2166" height="984">
	<title>Path 0</title>
	<style>
		tspan { white-space:pre }
		.shp0 { fill: #000000 } 
	</style>
	<path id="Path 0" fill-rule="evenodd" class="shp0" d="M498 0.48C521.88 0.74 533.73 1.32 547 2.9C556.62 4.04 571.02 6.15 579 7.59C586.97 9.02 602.05 12.37 612.5 15.02C622.95 17.67 637.35 21.73 644.5 24.03C651.65 26.33 664.25 30.9 672.5 34.19C680.75 37.47 692.9 42.65 699.5 45.69C706.1 48.73 714.87 53.03 719 55.25C723.12 57.46 740.59 67.88 757.81 78.39C775.03 88.9 788.76 97.78 788.31 98.12C787.87 98.46 775.12 105.04 732.5 126.77L715.75 116.38C706.54 110.67 691.46 102.2 682.25 97.55C673.04 92.9 658.75 86.42 650.5 83.16C642.25 79.9 630.44 75.6 624.25 73.61C618.06 71.63 607.04 68.44 599.75 66.53C592.46 64.63 580.87 61.96 574 60.61C567.12 59.25 553.85 57.12 544.5 55.85C529.49 53.83 523.34 53.55 492 53.53C463.86 53.52 453.49 53.88 442 55.3C434.02 56.28 421.65 58.16 414.5 59.47C407.35 60.78 396.55 62.99 390.5 64.38C384.45 65.77 376.35 67.86 372.5 69.02C368.65 70.17 360.55 72.73 354.5 74.7C348.45 76.66 337.87 80.5 331 83.23C324.12 85.95 311.97 91.31 304 95.14C296.02 98.96 284.32 105.06 278 108.7C271.67 112.33 259.52 119.93 251 125.58C242.47 131.23 230.55 139.79 224.5 144.6C218.45 149.4 208.77 157.47 203 162.53C197.22 167.58 187.59 176.85 181.58 183.11C175.58 189.37 166.99 198.77 162.5 204C158.01 209.22 150.72 218.22 146.3 224C141.89 229.77 135.1 239.22 131.22 245C127.35 250.77 121.2 260.45 117.55 266.5C113.91 272.55 108.06 283.12 104.56 290C101.06 296.87 95.5 308.8 92.21 316.5C88.93 324.2 83.91 337.25 81.07 345.5C78.22 353.75 74.11 367.02 71.93 375C69.74 382.97 66.64 396.02 65.03 404C63.42 411.97 61.2 425.47 60.1 434C58.99 442.52 57.6 459.4 57.01 471.5C56.24 487.25 56.25 499.04 57.02 513C57.62 523.72 58.99 539.47 60.07 548C61.15 556.52 63.59 571.15 65.5 580.5C67.4 589.85 70.99 604.59 73.48 613.25C75.96 621.91 80.2 634.96 82.89 642.25C85.58 649.54 89.91 660.45 92.51 666.5C95.1 672.55 99.48 682 102.23 687.5C104.98 693 112.09 705.6 118.04 715.5C123.98 725.4 129.12 734.17 129.45 735C129.82 735.9 123.85 747.76 99.17 792.5L96.75 788.5C95.41 786.3 86.52 771.67 76.98 756C67.45 740.32 56.43 721.2 52.5 713.5C48.58 705.8 42.41 692.52 38.8 684C35.19 675.47 29.69 661.07 26.57 652C23.46 642.92 19.14 628.97 16.98 621C14.82 613.02 11.48 598.62 9.56 589C7.64 579.37 5.16 564.52 4.06 556C2.95 547.47 1.59 534.2 1.03 526.5C0.47 518.8 0.01 503.05 0.02 491.5C0.02 479.95 0.68 462.85 1.49 453.5C2.29 444.15 3.64 431.32 4.49 425C5.33 418.67 6.72 409.67 7.58 405C8.44 400.32 10.49 390.42 12.15 383C13.81 375.57 16.5 364.77 18.13 359C19.77 353.22 22.72 343.55 24.69 337.5C26.66 331.45 30.94 319.75 34.21 311.5C37.47 303.25 44.31 287.95 49.39 277.5C54.48 267.05 61.47 253.55 64.94 247.5C68.41 241.45 76.34 228.85 82.56 219.5C88.79 210.15 97.75 197.55 102.47 191.5C107.2 185.45 114.31 176.67 118.27 172C122.23 167.32 132.68 156.15 141.48 147.18C150.29 138.2 162.67 126.4 169 120.96C175.32 115.52 185.45 107.2 191.5 102.47C197.55 97.75 210.15 88.79 219.5 82.56C228.85 76.34 241.45 68.41 247.5 64.94C253.55 61.47 267.05 54.48 277.5 49.39C287.95 44.3 301.22 38.26 307 35.97C312.77 33.67 323.12 29.79 330 27.35C336.87 24.9 348.8 21.13 356.5 18.98C364.2 16.82 375.22 13.95 381 12.59C386.77 11.23 397.8 9 405.5 7.63C413.2 6.25 425.57 4.41 433 3.53C440.42 2.65 451 1.52 456.5 1.03C462 0.55 480.67 0.3 498 0.48ZM904 65C905.37 64.98 908.47 65.98 910.87 67.23C913.49 68.59 916.02 70.91 917.17 73C918.47 75.35 919 77.97 918.8 81C918.55 84.77 895.26 129.44 775.18 356.5C696.35 505.55 630.87 628.5 629.68 629.72C628.48 630.94 505.77 696.37 357 775.1C110.3 905.67 86.02 918.3 81 918.72C76.41 919.1 74.92 918.79 72 916.82C70.07 915.52 67.71 912.89 66.75 910.98C65.79 909.07 65.01 905.92 65.01 904C65.01 901.28 97.14 839.73 208.56 629C287.51 479.67 353.31 356.3 354.8 354.83C356.28 353.36 478.1 288.38 625.5 210.44C772.9 132.49 895.3 67.89 897.5 66.88C899.7 65.87 902.62 65.02 904 65ZM376.2 376.5C175.32 756.64 117.11 867.14 117.25 867.32C117.39 867.5 227.52 809.42 362 738.27C496.47 667.12 607.03 608.36 607.67 607.7C608.31 607.04 666.92 496.59 737.92 362.25C808.91 227.91 866.85 117.82 866.67 117.59C866.5 117.37 756.07 175.53 621.27 246.84L376.2 376.5ZM890.57 201.17C891.18 201.9 899.06 214.65 908.07 229.5C917.08 244.35 927.46 262.35 931.14 269.5C934.82 276.65 940.62 289.02 944.02 297C947.43 304.97 952.13 316.67 954.48 323C956.83 329.32 960.6 340.57 962.85 348C965.1 355.42 968.52 368.02 970.45 376C972.37 383.97 975.05 396.57 976.4 404C977.74 411.42 979.54 423.12 980.4 430C981.25 436.87 982.41 447.9 982.96 454.5C983.52 461.1 983.98 477.75 983.98 491.5C983.99 505.6 983.33 523.91 982.49 533.5C981.66 542.85 980.06 556.8 978.93 564.5C977.79 572.2 975.97 583 974.86 588.5C973.76 594 970.9 606.15 968.51 615.5C966.12 624.85 962.5 637.67 960.47 644C958.44 650.32 953.86 662.92 950.3 672C946.74 681.07 939.18 697.95 933.5 709.5C927.81 721.05 919.62 736.35 915.29 743.5C910.96 750.65 904.57 760.77 901.09 766C897.61 771.22 890.2 781.55 884.63 788.94C879.06 796.34 869.56 808.04 863.53 814.94C857.5 821.85 846.92 833.14 840.03 840.03C833.14 846.92 821.85 857.5 814.94 863.53C808.04 869.56 796.34 879.07 788.94 884.65C781.55 890.23 770.1 898.37 763.5 902.75C756.9 907.12 745.42 914.23 738 918.54C730.57 922.86 716.4 930.3 706.5 935.07C696.6 939.85 681.75 946.45 673.5 949.75C665.25 953.05 653.55 957.37 647.5 959.34C641.45 961.31 630.87 964.48 624 966.38C617.12 968.28 605.42 971.19 598 972.86C590.57 974.52 577.07 977.03 568 978.44C558.92 979.84 543.62 981.69 534 982.55C523.5 983.48 506.1 984.1 490.5 984.08C475.01 984.07 458.03 983.44 448.5 982.53C439.7 981.69 429.12 980.52 425 979.93C420.87 979.34 412.77 978.03 407 977.01C401.22 975.99 391.1 973.97 384.5 972.52C377.9 971.06 369.12 968.97 365 967.86C360.87 966.76 350.97 963.82 343 961.33C335.02 958.85 321.07 953.89 312 950.32C302.92 946.75 287.4 939.89 277.5 935.08C266.74 929.85 246.43 918.39 227 906.57C209.12 895.69 194.39 886.62 194.25 886.4C194.11 886.18 206.71 879.46 222.25 871.47C238.7 863.01 251.13 857.19 252 857.54C252.82 857.87 260.7 862.57 269.5 867.98C278.3 873.39 292.7 881.36 301.5 885.68C310.3 890.01 323.35 895.86 330.5 898.69C337.65 901.51 349.12 905.68 356 907.95C362.87 910.22 374.35 913.61 381.5 915.49C388.65 917.36 400.57 920.07 408 921.49C415.42 922.92 428.7 925.07 437.5 926.27C451.44 928.17 458.15 928.45 489.5 928.47C517.96 928.49 528.54 928.12 540 926.72C547.97 925.74 560.8 923.8 568.5 922.4C576.2 921.01 589.25 918.14 597.5 916.03C605.75 913.92 617.67 910.52 624 908.48C630.32 906.44 641.57 902.4 649 899.5C656.42 896.61 668.57 891.34 676 887.8C683.42 884.25 694.9 878.29 701.5 874.55C708.1 870.81 717.77 865 723 861.66C728.22 858.31 737.45 851.99 743.5 847.63C749.55 843.26 758.1 836.78 762.5 833.24C766.9 829.7 776.12 821.71 783 815.49C789.87 809.27 799.78 799.53 805.01 793.84C810.24 788.15 817.23 780.35 820.54 776.5C823.85 772.65 829.05 766.35 832.1 762.5C835.15 758.65 841.29 750.32 845.75 744C850.21 737.67 857.53 726.42 862.02 719C866.52 711.57 874.83 696.05 880.5 684.5C886.16 672.95 892.82 658.1 895.29 651.5C897.76 644.9 901.83 633.2 904.34 625.5C906.84 617.8 910.44 605.2 912.34 597.5C914.24 589.8 916.94 577.2 918.35 569.5C919.76 561.8 921.71 548.97 922.68 541C924.07 529.67 924.46 518.74 924.48 491C924.5 462.62 924.14 452.59 922.69 441C921.69 433.02 919.76 420.42 918.4 413C917.04 405.57 914.77 394.55 913.35 388.5C911.93 382.45 908.61 370.3 905.98 361.5C903.35 352.7 898.46 338.52 895.12 330C891.77 321.47 885.62 307.52 881.44 299C877.26 290.47 870.27 277.54 865.92 270.25C861.56 262.96 857.91 256.79 857.79 256.53C857.68 256.28 864.76 243.42 873.53 227.95C885.88 206.16 889.72 200.14 890.57 201.17ZM2020 336.17C2020.27 336.11 2026.12 336.47 2033 336.97C2039.87 337.47 2050 338.81 2055.5 339.95C2061 341.09 2069.77 343.43 2075 345.15C2080.22 346.87 2088.55 350.3 2093.5 352.76C2098.45 355.22 2105.42 359.29 2109 361.81C2112.57 364.32 2118.59 369.11 2122.37 372.44C2126.15 375.77 2131.94 381.87 2135.24 386C2138.55 390.12 2143.08 396.65 2145.31 400.5C2147.55 404.35 2150.85 411.1 2152.64 415.5C2154.44 419.9 2157.02 427.55 2158.39 432.5C2159.76 437.45 2160.6 441.84 2160.27 442.25C2159.94 442.66 2142.98 443.01 2085.5 443.06L2082.79 438.28C2081.3 435.65 2078.04 430.91 2075.54 427.75C2073.03 424.57 2068.21 420.2 2064.75 417.96C2061.31 415.74 2056.02 412.99 2053 411.86C2049.97 410.73 2043.45 409.12 2038.5 408.3C2032.47 407.29 2026.36 406.99 2020 407.38C2014.77 407.7 2006.9 408.9 2002.5 410.03C1998.1 411.17 1991.57 413.54 1988 415.3C1983.52 417.51 1978.83 421.14 1972.9 427C1965.43 434.39 1963.64 436.87 1959.21 446C1956.4 451.77 1953.43 459.2 1952.61 462.5C1951.78 465.8 1950.58 472.55 1949.93 477.5C1949.22 482.89 1949.01 490.31 1949.41 496C1949.78 501.22 1950.78 508.87 1951.64 513C1952.5 517.12 1954.12 522.97 1955.24 526C1956.36 529.02 1959.13 534.64 1961.39 538.48C1963.65 542.32 1967.97 547.99 1971 551.09C1974.02 554.18 1979.2 558.47 1982.5 560.62C1985.8 562.77 1992.21 565.76 1996.75 567.26C2001.29 568.77 2009.16 570.47 2014.25 571.05C2019.34 571.63 2026.87 571.83 2031 571.5C2035.12 571.17 2041.87 570.19 2046 569.33C2050.12 568.46 2056.2 566.5 2059.5 564.96C2062.8 563.42 2067.94 559.98 2070.93 557.33C2073.92 554.67 2078.54 549.12 2081.21 545C2083.88 540.87 2086.05 537.16 2086.03 536.75C2086.01 536.34 2071.94 535.89 2023.5 535.5L2023 469L2165 469L2165.49 471.25C2165.75 472.49 2165.98 481.82 2165.99 492C2166 502.17 2165.53 514.32 2164.95 519C2164.37 523.67 2163.07 531.55 2162.05 536.5C2161.03 541.45 2159.01 549.1 2157.56 553.5C2156.1 557.9 2152.5 566.45 2149.54 572.5C2146.59 578.55 2141.51 587.1 2138.26 591.5C2135.01 595.9 2129.46 602.2 2125.92 605.5C2122.39 608.81 2116.57 613.6 2113 616.16C2109.42 618.72 2103.12 622.73 2099 625.06C2094.87 627.39 2088.57 630.4 2085 631.76C2081.42 633.11 2074.9 635.27 2070.5 636.55C2066.1 637.83 2058.45 639.68 2053.5 640.67C2046.46 642.08 2039.83 642.46 2023 642.43C2004.56 642.4 2000 642.07 1991 640.14C1985.22 638.9 1975.77 636.31 1970 634.38C1964.22 632.45 1955.22 628.75 1950 626.16C1944.77 623.57 1937.35 619.33 1933.5 616.74C1929.65 614.15 1923.26 609.21 1919.3 605.76C1915.34 602.32 1909.35 596.35 1905.99 592.5C1902.64 588.65 1897.49 581.9 1894.56 577.5C1891.62 573.1 1887.54 566.12 1885.48 562C1883.43 557.87 1880.26 550 1878.44 544.5C1876.62 539 1874.45 531.12 1873.61 527C1872.77 522.87 1871.62 515.45 1871.05 510.5C1870.48 505.55 1870.02 496.32 1870.02 490C1870.02 483.67 1870.48 474.45 1871.05 469.5C1871.62 464.55 1872.77 457.12 1873.61 453C1874.45 448.87 1876.62 441 1878.44 435.5C1880.26 430 1883.44 422.12 1885.5 418C1887.56 413.87 1891.6 406.9 1894.48 402.5C1897.37 398.1 1902.88 390.9 1906.74 386.5C1910.59 382.1 1917.07 375.75 1921.12 372.39C1925.18 369.03 1931.87 364.1 1936 361.44C1940.12 358.79 1947.55 354.69 1952.5 352.35C1957.45 350.01 1966.22 346.54 1972 344.64C1977.77 342.73 1986.55 340.41 1991.5 339.47C1996.45 338.53 2004.77 337.43 2010 337.03C2015.22 336.62 2019.72 336.24 2020 336.17ZM1119.5 340.5L1120.01 453.5L1132.25 452.82C1139.41 452.42 1147.83 451.26 1152.5 450.02C1156.9 448.86 1163.2 446.47 1166.5 444.71C1169.8 442.96 1174.52 439.48 1177 436.99C1179.47 434.49 1183.16 429.76 1185.2 426.48C1187.23 423.19 1189.83 417.8 1190.98 414.5C1192.13 411.2 1193.77 404.67 1194.62 400C1195.59 394.7 1196.43 381.89 1197.5 340.5L1276.5 339.97L1275.79 368.74C1275.38 385.18 1274.43 401.78 1273.58 407.5C1272.76 413 1271.22 420.87 1270.16 425C1269.1 429.12 1266.99 435.65 1265.48 439.5C1263.96 443.35 1261.37 449.2 1259.72 452.5C1258.07 455.8 1255.06 460.97 1253.02 464C1250.98 467.02 1245.98 472.91 1241.9 477.09C1237.83 481.26 1231.01 487.22 1226.75 490.34C1222.49 493.45 1219.17 496.34 1219.37 496.75C1219.57 497.16 1237.8 526.86 1300 628L1299.5 639.5L1214.5 639.97L1181.5 581.9C1152.69 531.2 1148.25 523.9 1146.5 524.37C1145.4 524.67 1138.99 525.27 1120 526.5L1119.5 639.5L1041.5 639.5L1041.24 491C1041.1 409.32 1041.21 341.93 1041.48 341.24C1041.87 340.25 1050.27 340.03 1119.5 340.5ZM1343.02 339.98L1419.5 340.5L1420 570L1528 570L1528 640L1343 640L1343.02 339.98ZM1650.5 340.5L1651.5 548.5L1653.7 553C1654.91 555.47 1658.06 559.51 1660.7 561.96C1663.34 564.41 1668.65 567.87 1672.5 569.64C1677.04 571.73 1682.39 573.23 1687.75 573.93C1693.17 574.63 1698.48 574.68 1703.25 574.07C1707.24 573.56 1712.75 572.31 1715.5 571.29C1718.25 570.26 1722.52 568.27 1725 566.85C1727.47 565.44 1731.2 562.3 1733.27 559.89C1735.34 557.48 1737.82 553.47 1738.77 551C1740.36 546.87 1740.54 538.05 1741.5 340.5L1814.78 339.98L1814.9 444.74C1815 532.34 1814.78 550.89 1813.56 558C1812.76 562.67 1810.91 569.87 1809.45 574C1808 578.12 1805.32 584.2 1803.51 587.5C1801.7 590.8 1797.65 596.65 1794.51 600.5C1791.37 604.35 1786.25 609.77 1783.15 612.54C1780.04 615.31 1775.25 619.2 1772.5 621.19C1769.75 623.17 1763 627.04 1757.5 629.79C1752 632.53 1744.57 635.74 1741 636.9C1737.42 638.07 1730.22 639.94 1725 641.06C1719.55 642.22 1709.53 643.34 1701.5 643.67C1691.19 644.1 1684.6 643.83 1676.5 642.63C1670.45 641.74 1661.45 639.85 1656.5 638.44C1651.55 637.02 1643 633.73 1637.5 631.13C1632 628.53 1623.95 623.95 1619.62 620.95C1615.28 617.95 1608.42 612.01 1604.37 607.75C1600.31 603.49 1595.61 598.09 1593.91 595.75C1592.2 593.41 1589.44 588.8 1587.76 585.5C1586.09 582.2 1583.63 576.35 1582.31 572.5C1580.99 568.65 1579.26 561.22 1578.46 556C1577.28 548.23 1576.98 527.82 1576.84 443.92C1576.74 387.5 1577.05 341.03 1577.51 340.65C1577.98 340.28 1594.59 340.09 1650.5 340.5Z" />
</svg>