<?xml version="1.0" standalone="no"?>
<!DOCTYPE svg PUBLIC "-//W3C//DTD SVG 20010904//EN"
 "http://www.w3.org/TR/2001/REC-SVG-20010904/DTD/svg10.dtd">
<svg version="1.0" xmlns="http://www.w3.org/2000/svg"
 width="1061.000000pt" height="690.000000pt" viewBox="0 0 1061.000000 690.000000"
 preserveAspectRatio="xMidYMid meet">

<g transform="translate(0.000000,690.000000) scale(0.100000,-0.100000)"
fill="#000000" stroke="none">
<path d="M7145 6713 c-123 -10 -253 -26 -355 -44 -854 -151 -1613 -641 -2112
-1364 -665 -964 -752 -2247 -222 -3295 61 -121 255 -442 268 -444 11 -1 194
323 195 344 1 9 -19 48 -44 87 -128 207 -256 516 -319 774 -203 833 -34 1703
463 2389 759 1048 2108 1464 3326 1025 148 -53 355 -150 465 -218 l75 -46 188
96 c103 53 186 97 185 98 -17 15 -386 234 -445 263 -446 224 -980 346 -1487
340 -78 -1 -159 -3 -181 -5z"/>
<path d="M10080 6343 c-52 -19 -3634 -1919 -3653 -1939 -29 -29 -1934 -3628
-1943 -3670 -14 -69 52 -144 126 -144 27 0 442 215 1850 960 1025 543 1826
972 1841 987 15 16 456 840 980 1833 734 1388 955 1814 957 1845 3 50 -13 83
-57 112 -32 22 -69 28 -101 16z m-1120 -2036 l-843 -1594 -1594 -843 c-877
-463 -1596 -841 -1598 -839 -2 2 376 722 840 1598 l843 1595 1593 842 c876
464 1595 841 1597 839 3 -2 -375 -721 -838 -1598z"/>
<path d="M180 3530 l0 -2150 560 0 560 0 0 819 0 818 178 7 c97 4 193 8 212 9
l34 2 471 -827 470 -828 613 0 612 0 0 88 0 88 -576 934 c-317 514 -578 939
-580 944 -2 6 37 40 88 76 217 155 398 361 506 576 162 323 212 611 228 1302
l7 292 -571 0 -572 0 0 -225 c0 -483 -38 -752 -133 -940 -146 -291 -370 -422
-781 -455 -71 -5 -146 -10 -167 -10 l-39 0 0 815 0 815 -560 0 -560 0 0 -2150z"/>
<path d="M9929 5168 c-52 -94 -95 -178 -97 -185 -2 -7 13 -40 33 -72 59 -98
170 -337 218 -472 180 -499 215 -1084 98 -1604 -219 -973 -930 -1770 -1867
-2095 -633 -219 -1318 -214 -1945 14 -191 69 -293 118 -476 228 l-83 49 -186
-97 c-102 -53 -182 -100 -177 -104 33 -29 412 -245 527 -300 303 -145 611
-236 966 -285 156 -22 511 -30 687 -16 766 61 1483 393 2032 942 511 511 825
1147 926 1874 22 159 31 534 16 691 -42 440 -148 819 -333 1187 -36 73 -224
394 -243 415 -1 1 -44 -75 -96 -170z"/>
</g>
</svg>
